<svg width="101" height="18" viewBox="0 0 101 18" fill="none" xmlns="http://www.w3.org/2000/svg">
<path d="M12.0273 17L10.8887 13.2617H5.16309L4.02441 17H0.436523L5.97949 1.23047H10.0508L15.6152 17H12.0273ZM10.0938 10.4688C9.04102 7.08138 8.44661 5.16569 8.31055 4.72168C8.18164 4.27767 8.08854 3.92676 8.03125 3.66895C7.79492 4.58561 7.11816 6.85221 6.00098 10.4688H10.0938ZM24.0479 4.76465C24.4919 4.76465 24.8607 4.79688 25.1543 4.86133L24.9072 7.93359C24.6423 7.86198 24.32 7.82617 23.9404 7.82617C22.8949 7.82617 22.0785 8.09473 21.4912 8.63184C20.9111 9.16895 20.6211 9.9209 20.6211 10.8877V17H17.3447V4.99023H19.8262L20.3096 7.00977H20.4707C20.8431 6.33659 21.3444 5.7959 21.9746 5.3877C22.612 4.97233 23.3031 4.76465 24.0479 4.76465ZM32.2119 17.2148C28.4736 17.2148 26.6045 15.1631 26.6045 11.0596C26.6045 9.01855 27.113 7.46094 28.1299 6.38672C29.1468 5.30534 30.6042 4.76465 32.502 4.76465C33.8913 4.76465 35.1374 5.03678 36.2402 5.58105L35.2734 8.11621C34.7578 7.90853 34.278 7.74023 33.834 7.61133C33.39 7.47526 32.946 7.40723 32.502 7.40723C30.7975 7.40723 29.9453 8.61751 29.9453 11.0381C29.9453 13.387 30.7975 14.5615 32.502 14.5615C33.1322 14.5615 33.7158 14.4792 34.2529 14.3145C34.79 14.1426 35.3271 13.8776 35.8643 13.5195V16.3232C35.3343 16.6598 34.7972 16.8926 34.2529 17.0215C33.7158 17.1504 33.0355 17.2148 32.2119 17.2148ZM49.7432 17H46.4668V9.98535C46.4668 8.25228 45.8223 7.38574 44.5332 7.38574C43.6165 7.38574 42.9541 7.69727 42.5459 8.32031C42.1377 8.94336 41.9336 9.95312 41.9336 11.3496V17H38.6572V0.285156H41.9336V3.69043C41.9336 3.9554 41.9085 4.57845 41.8584 5.55957L41.7832 6.52637H41.9551C42.6855 5.35189 43.8457 4.76465 45.4355 4.76465C46.8464 4.76465 47.917 5.14421 48.6475 5.90332C49.3779 6.66243 49.7432 7.75098 49.7432 9.16895V17ZM52.9766 1.88574C52.9766 0.818685 53.571 0.285156 54.7598 0.285156C55.9486 0.285156 56.543 0.818685 56.543 1.88574C56.543 2.39421 56.3926 2.79167 56.0918 3.07812C55.7982 3.35742 55.3542 3.49707 54.7598 3.49707C53.571 3.49707 52.9766 2.95996 52.9766 1.88574ZM56.3926 17H53.1162V4.99023H56.3926V17ZM64.9004 14.6045C65.4733 14.6045 66.1608 14.4792 66.9629 14.2285V16.667C66.1465 17.0322 65.1439 17.2148 63.9551 17.2148C62.6445 17.2148 61.6885 16.8854 61.0869 16.2266C60.4925 15.5605 60.1953 14.5651 60.1953 13.2402V7.4502H58.627V6.06445L60.4316 4.96875L61.377 2.43359H63.4717V4.99023H66.834V7.4502H63.4717V13.2402C63.4717 13.7057 63.6006 14.0495 63.8584 14.2715C64.1234 14.4935 64.4707 14.6045 64.9004 14.6045ZM74.375 7.0957C73.6803 7.0957 73.1361 7.31771 72.7422 7.76172C72.3483 8.19857 72.1227 8.82161 72.0654 9.63086H76.6631C76.6488 8.82161 76.4375 8.19857 76.0293 7.76172C75.6211 7.31771 75.0697 7.0957 74.375 7.0957ZM74.8369 17.2148C72.9033 17.2148 71.3923 16.6813 70.3037 15.6143C69.2152 14.5472 68.6709 13.0361 68.6709 11.0811C68.6709 9.06868 69.1722 7.51465 70.1748 6.41895C71.1846 5.31608 72.5775 4.76465 74.3535 4.76465C76.0508 4.76465 77.3721 5.24805 78.3174 6.21484C79.2627 7.18164 79.7354 8.51725 79.7354 10.2217V11.8115H71.9902C72.026 12.7425 72.3018 13.4694 72.8174 13.9922C73.333 14.515 74.0563 14.7764 74.9873 14.7764C75.7106 14.7764 76.3945 14.7012 77.0391 14.5508C77.6836 14.4004 78.3568 14.1605 79.0586 13.8311V16.3662C78.4857 16.6527 77.8734 16.8639 77.2217 17C76.57 17.1432 75.7751 17.2148 74.8369 17.2148ZM87.2764 17.2148C83.5381 17.2148 81.6689 15.1631 81.6689 11.0596C81.6689 9.01855 82.1774 7.46094 83.1943 6.38672C84.2113 5.30534 85.6686 4.76465 87.5664 4.76465C88.9557 4.76465 90.2018 5.03678 91.3047 5.58105L90.3379 8.11621C89.8223 7.90853 89.3424 7.74023 88.8984 7.61133C88.4544 7.47526 88.0104 7.40723 87.5664 7.40723C85.862 7.40723 85.0098 8.61751 85.0098 11.0381C85.0098 13.387 85.862 14.5615 87.5664 14.5615C88.1966 14.5615 88.7803 14.4792 89.3174 14.3145C89.8545 14.1426 90.3916 13.8776 90.9287 13.5195V16.3232C90.3988 16.6598 89.8617 16.8926 89.3174 17.0215C88.7803 17.1504 88.0999 17.2148 87.2764 17.2148ZM98.7812 14.6045C99.3542 14.6045 100.042 14.4792 100.844 14.2285V16.667C100.027 17.0322 99.0247 17.2148 97.8359 17.2148C96.5254 17.2148 95.5693 16.8854 94.9678 16.2266C94.3734 15.5605 94.0762 14.5651 94.0762 13.2402V7.4502H92.5078V6.06445L94.3125 4.96875L95.2578 2.43359H97.3525V4.99023H100.715V7.4502H97.3525V13.2402C97.3525 13.7057 97.4814 14.0495 97.7393 14.2715C98.0042 14.4935 98.3516 14.6045 98.7812 14.6045Z" fill="white"/>
</svg>
